<svg width="102" height="61" viewBox="0 0 102 61" fill="none" xmlns="http://www.w3.org/2000/svg">
<path d="M19.3708 0.203125L10.7778 8.21875L19.3708 17.0039H16.9708L9.19383 9.13086H2.95383V17.0039H1.15283V0.203125H2.95383V7.59619H9.14584L16.9948 0.203125H19.3708Z" fill="black"/>
<path d="M17.3792 28.5391C16.7792 25.2271 13.7542 23.498 9.89024 23.498C4.97024 23.498 1.94624 25.8979 1.94624 30.627C1.94624 34.6841 4.17824 37.7319 9.89024 37.7319C14.3552 37.7319 16.9952 35.4761 17.3792 32.7642H19.2512C18.7472 36.123 15.9392 39.292 9.84224 39.292C3.53024 39.292 0.0732422 35.9077 0.0732422 30.627C0.0732422 25.7788 3.12224 21.9141 9.91424 21.9141C15.3152 21.9141 18.6992 24.7461 19.2512 28.5391H17.3792Z" fill="black"/>
<path d="M28.0101 39.0039V23.7871H20.3291V22.2031H37.4911V23.7871H29.8101V39.0039H28.0101Z" fill="black"/>
<path d="M40.4888 22.2031H50.9538C55.1548 22.2031 57.2908 23.811 57.2908 27.2188C57.2908 30.5078 54.7708 32.332 50.9538 32.332H42.2888V39.0039H40.4888V22.2031ZM42.2888 30.7949H49.8738C53.2338 30.7949 55.4178 30.3628 55.4178 27.2188C55.4178 23.9551 53.2338 23.7378 49.8738 23.7378H42.2888V30.7949Z" fill="black"/>
<path d="M69.53 21.9141C75.578 21.9141 79.323 25.2988 79.323 30.6758C79.323 36.0039 75.578 39.292 69.53 39.292C63.457 39.292 59.689 36.0039 59.689 30.6758C59.689 25.2988 63.529 21.9141 69.53 21.9141ZM69.53 37.708C74.258 37.708 77.45 35.4512 77.45 30.6758C77.45 25.7788 74.258 23.498 69.53 23.498C64.705 23.498 61.561 25.8262 61.561 30.6758C61.561 35.4761 64.681 37.708 69.53 37.708Z" fill="black"/>
<path d="M83.2812 39.0044V22.2036H85.0812V36.8442L99.2422 22.2036H101.042V39.0044H99.2422V24.3872L85.0812 39.0044H83.2812ZM87.3132 17.5703C87.3132 19.6582 89.3772 20.7622 92.0892 20.7622C94.8022 20.7622 96.8662 19.6582 96.8662 17.5703H95.3062C95.3062 18.3154 94.6582 19.3223 92.0892 19.3223C89.5212 19.3223 88.8732 18.3154 88.8732 17.5703H87.3132Z" fill="black"/>
<path d="M11.0178 57.5229H9.60183L3.00183 46.2671H2.95383V61.0039H1.15283V44.2031H3.69783L10.3458 55.5308H10.4178L16.8268 44.2031H19.3708V61.0039H17.5708V46.0508H17.5228L11.0178 57.5229Z" fill="black"/>
</svg>
