<svg width="189" height="76" viewBox="0 0 189 76" fill="none" xmlns="http://www.w3.org/2000/svg">
<path d="M24.7358 0.578125L13.9958 10.5971L24.7358 21.5771H21.7358L12.0158 11.7381H4.2168V21.5771H1.9668V0.578125H4.2168V9.81815H11.9558L21.7658 0.578125H24.7358Z" fill="white"/>
<path d="M22.2472 35.4987C21.4972 31.3577 17.7172 29.1978 12.8872 29.1978C6.73822 29.1978 2.95721 32.1978 2.95721 38.1077C2.95721 43.1777 5.74719 46.9877 12.8872 46.9877C18.4672 46.9877 21.7672 44.1678 22.2472 40.7777H24.5872C23.9572 44.9767 20.4472 48.9377 12.8272 48.9377C4.93719 48.9377 0.617188 44.7077 0.617188 38.1077C0.617188 32.0477 4.42822 27.2188 12.9172 27.2188C19.6672 27.2188 23.8972 30.7578 24.5872 35.4987H22.2472Z" fill="white"/>
<path d="M31.7871 48.5771H29.5371V27.5781H50.8371V48.5771H48.5871V29.5581H31.7871V48.5771Z" fill="white"/>
<path d="M74.0565 43.2671H59.6865L56.9875 48.5771H54.4375L65.3865 27.5781H68.4164L79.3365 48.5771H76.8165L74.0565 43.2671ZM60.6775 41.3471H73.0665L66.8865 29.3771H66.7964L60.6775 41.3471Z" fill="white"/>
<path d="M102.766 35.4987C102.016 31.3577 98.2367 29.1978 93.4067 29.1978C87.2567 29.1978 83.4767 32.1978 83.4767 38.1077C83.4767 43.1777 86.2667 46.9877 93.4067 46.9877C98.9867 46.9877 102.286 44.1678 102.766 40.7777H105.106C104.476 44.9767 100.966 48.9377 93.3457 48.9377C85.4567 48.9377 81.1367 44.7077 81.1367 38.1077C81.1367 32.0477 84.9467 27.2188 93.4367 27.2188C100.186 27.2188 104.416 30.7578 105.106 35.4987H102.766Z" fill="white"/>
<path d="M110.057 48.5771V27.5781H112.307V45.8761L130.006 27.5781H132.256V48.5771H130.006V30.3081L112.307 48.5771H110.057Z" fill="white"/>
<path d="M158.656 27.5781V29.4981H140.807V36.8181H152.866C157.066 36.8181 160.216 38.6771 160.216 42.7271C160.216 46.4761 157.066 48.5771 152.866 48.5771H138.557V27.5781H158.656ZM140.807 46.6571H153.016C155.716 46.6571 157.876 46.0271 157.876 42.7271C157.876 39.4271 155.716 38.7381 153.016 38.7381H140.807V46.6571Z" fill="white"/>
<path d="M176.115 27.2188C183.675 27.2188 188.355 31.4478 188.355 38.1678C188.355 44.8277 183.675 48.9377 176.115 48.9377C168.526 48.9377 163.816 44.8277 163.816 38.1678C163.816 31.4478 168.615 27.2188 176.115 27.2188ZM176.115 46.9577C182.025 46.9577 186.015 44.1367 186.015 38.1678C186.015 32.0477 182.025 29.1978 176.115 29.1978C170.086 29.1978 166.156 32.1077 166.156 38.1678C166.156 44.1678 170.055 46.9577 176.115 46.9577Z" fill="white"/>
<path d="M14.2958 71.2271H12.5258L4.27679 57.1581H4.2168V75.5771H1.9668V54.5781H5.14581L13.4558 68.7371H13.5458L21.5558 54.5781H24.7358V75.5771H22.4858V56.8871H22.4258L14.2958 71.2271Z" fill="white"/>
</svg>
